mtllib skybox.mtl
o Cube.001
v -19.999996 -20.000019 19.999985
v -19.999998 -19.999994 -20.000008
v -20.000006 20.000010 -19.999983
v -20.000004 19.999981 20.000019
v 20.000006 -20.000004 19.999992
v 19.999998 19.999998 20.000002
v 19.999994 20.000011 -19.999992
v 20.000000 -19.999981 -20.000015
vt 0.499347 0.664760
vt 0.748299 0.664760
vt 0.748299 0.336828
vt 0.001442 0.336828
vt 0.001442 0.664760
vt 0.250395 0.664760
vt 0.499347 0.008896
vt 0.250395 0.008896
vt 0.250395 0.336828
vt 0.997251 0.664760
vt 0.997251 0.336828
vt 0.499347 0.667608
vt 0.250395 0.667608
vt 0.250395 0.995540
vt 0.249911 0.666224
vt 0.499593 0.666224
vt 0.499593 0.334316
vt 0.499347 0.336828
vt 0.499347 0.995540
vt 0.249910 0.334316
vn 1.000000 0.000000 -0.000000
vn -1.000000 -0.000000 0.000000
vn -0.000000 0.000000 -1.000000
vn 0.000000 -1.000000 -0.000000
vn 0.000000 -0.000000 1.000000
vn -0.000000 1.000000 0.000000
usemtl skybox
s 1
f 2/1/1 3/2/1 4/3/1
f 6/4/2 7/5/2 8/6/2
f 4/7/3 6/8/3 5/9/3
f 3/2/4 7/10/4 6/11/4
f 2/12/5 8/13/5 7/14/5
f 8/15/6 2/16/6 1/17/6
f 1/18/1 2/1/1 4/3/1
f 5/9/2 6/4/2 8/6/2
f 1/18/3 4/7/3 5/9/3
f 4/3/4 3/2/4 6/11/4
f 3/19/5 2/12/5 7/14/5
f 5/20/6 8/15/6 1/17/6
